<svg height="511pt" viewBox="-5 0 511 511.99893" width="511pt" xmlns="http://www.w3.org/2000/svg"><path d="m491.191406 512h-156.863281v-122.800781c0-8.183594 6.632813-14.820313 14.816406-14.820313h138.292969c8.183594 0 14.820312 6.636719 14.820312 14.820313v111.734375c0 6.109375-4.957031 11.066406-11.066406 11.066406zm0 0" fill="#99e2ff"/><path d="m487.441406 374.378906h-38.34375v137.621094h42.09375c6.109375 0 11.066406-4.957031 11.066406-11.066406v-111.734375c0-8.183594-6.632812-14.820313-14.816406-14.820313zm0 0" fill="#6bd"/><path d="m273.867188 234.179688h-44.976563l13.878906-92.09375h17.214844zm0 0" fill="#e4eaf7"/><path d="m202.570312 8.371094c-6.148437 0-11.132812 4.984375-11.132812 11.132812v101.921875c0 31.398438 60.007812 50.28125 60.007812 50.28125s60.007813-18.882812 60.007813-50.28125v-101.921875c0-6.148437-4.984375-11.132812-11.132813-11.132812zm0 0" fill="#fcdf6c"/><g fill="#f4b425"><path d="m300.320312 8.371094h-42.160156v113.054687c0 16.871094-17.328125 30.128907-33.363281 38.785157 13.804687 7.453124 26.648437 11.496093 26.648437 11.496093s60.007813-18.882812 60.007813-50.285156v-101.917969c0-6.148437-4.984375-11.132812-11.132813-11.132812zm0 0"/><path d="m371.679688 9.871094c-5.285157-6.132813-12.265626-9.542969-20.183594-9.8476565-21.15625-.7968755-43.003906 20.2773435-45.429688 22.6835935v.003907c-.140625.136718-.269531.277343-.398437.425781-.011719.015625-.027344.035156-.042969.054687-.027344.027344-.050781.054688-.074219.085938-.03125.035156-.058593.070312-.085937.105468-.007813.011719-.019532.023438-.027344.035157-.035156.042969-.066406.085937-.097656.128906-.003906.003906-.007813.011719-.015625.015625-.03125.046875-.066407.09375-.097657.136719-.003906.003906-.007812.007812-.007812.011719-.03125.046874-.0625.089843-.09375.136718-.003906.003906-.007812.011719-.011719.019532-.03125.042968-.0625.089843-.089843.132812-.003907.007812-.007813.015625-.011719.019531-.03125.046875-.058594.089844-.085938.136719-.003906.007812-.011719.015625-.015625.023438-.023437.042968-.050781.085937-.074218.128906-.007813.011718-.015626.023437-.019532.035156-.023437.039062-.042968.078125-.066406.113281-.007812.019531-.019531.039063-.03125.058594-.015625.035156-.035156.066406-.050781.097656-.011719.027344-.023438.050781-.035157.074219-.015624.027344-.03125.054688-.042968.082031-.015625.03125-.03125.0625-.046875.097657-.007813.019531-.015625.039062-.027344.058593-.019531.039063-.035156.078125-.054687.121094l-.015626.035156c-.023437.050781-.042968.101563-.0625.152344-.371093.898437-.574218 1.875-.574218 2.902344v9.285156c-.03125 5.285156 1.996094 10.253906 5.707031 13.988281 3.695313 3.714844 8.617187 5.761719 13.867187 5.761719 10.824219 0 19.628907-8.804687 19.628907-19.628906 0-4.222657-3.421875-7.644531-7.640625-7.644531-4.222656 0-7.644532 3.421874-7.644532 7.644531 0 2.394531-1.949218 4.34375-4.34375 4.34375-1.148437 0-2.222656-.445313-3.023437-1.253907-.824219-.824218-1.269531-1.933593-1.265625-3.164062v-6.019531c6.792969-6.0625 20.914062-16.558594 31.824219-16.144531 3.714843.148437 6.632812 1.59375 9.175781 4.550781 4.980469 5.785156 7.167969 11.703125 6.6875 18.09375-1.410156 18.664062-25.148438 39.035156-40.859375 52.515625-5.203125 4.464844-9.695313 8.320312-13.027344 11.707031-5.855469 5.960937-9.21875 14.28125-9.21875 22.824219 0 11.316406 8.886719 20.523437 19.808594 20.523437s19.804687-9.207031 19.804687-20.523437c0-4.222656-3.421874-7.644532-7.644531-7.644532-4.21875 0-7.640625 3.421876-7.640625 7.644532 0 2.890625-2.027344 5.238281-4.519531 5.238281s-4.523437-2.347656-4.523437-5.238281c0-4.566406 1.761718-8.980469 4.835937-12.109375 2.875-2.925781 7.140625-6.585938 12.078125-10.824219 18.679688-16.027344 44.261719-37.976562 46.144531-62.960938.796875-10.503906-2.683593-20.335937-10.339843-29.230468zm0 0"/><path d="m182.53125 40.5625c-.847656.847656-1.964844 1.320312-3.15625 1.320312-2.398438 0-4.34375-1.949218-4.34375-4.347656 0-4.21875-3.421875-7.640625-7.644531-7.640625-4.222657 0-7.644531 3.421875-7.644531 7.640625 0 10.824219 8.808593 19.632813 19.628906 19.632813 5.292968 0 10.265625-2.070313 14-5.832031 3.714844-3.734376 5.738281-8.679688 5.707031-13.875v-9.328126c0-.011718 0-.019531 0-.027343 0-.023438 0-.046875 0-.070313 0-.042968-.003906-.082031-.003906-.125 0-.007812 0-.015625 0-.027344-.027344-.804687-.175781-1.582031-.433594-2.304687l-.007813-.019531c-.015624-.046875-.035156-.09375-.050781-.140625-.003906-.015625-.011719-.027344-.015625-.042969-.015625-.039062-.03125-.078125-.046875-.117188-.007812-.019531-.019531-.042968-.027343-.0625-.011719-.03125-.027344-.0625-.039063-.09375s-.027344-.058593-.039063-.089843c-.011718-.019531-.019531-.042969-.03125-.0625-.015624-.039063-.035156-.078125-.050781-.113281-.007812-.015626-.015625-.03125-.023437-.046876-.019532-.042968-.042969-.085937-.0625-.128906-.003906-.007812-.007813-.015625-.011719-.023437-.027344-.046875-.050781-.097657-.078125-.144531 0-.003907-.003906-.007813-.007812-.011719-.269532-.496094-.597657-.96875-.984376-1.40625-.027343-.027344-.050781-.058594-.078124-.085938-.011719-.011719-.019532-.023437-.03125-.035156-.035157-.035156-.066407-.070313-.101563-.105469-.011719-.011718-.023437-.023437-.03125-.035156-.035156-.035156-.070313-.070312-.101563-.101562-.003906-.003907-.007812-.007813-.011718-.011719-2.433594-2.410157-24.386719-23.511719-45.5625-22.6718752-7.917969.3125002-14.894532 3.7187502-20.167969 9.8476562-7.660156 8.894531-11.140625 18.726562-10.347656 29.222656 1.886719 24.984375 27.46875 46.933594 46.144531 62.960938 4.9375 4.238281 9.203125 7.898437 12.078125 10.824218 3.074219 3.128907 4.835937 7.542969 4.835937 12.109376 0 2.890624-2.027343 5.238281-4.519531 5.238281-2.492187 0-4.519531-2.347657-4.519531-5.238281 0-4.222657-3.421875-7.644532-7.644531-7.644532-4.222657 0-7.644531 3.421875-7.644531 7.644532 0 11.316406 8.886718 20.523437 19.808593 20.523437s19.804688-9.207031 19.804688-20.523437c0-8.542969-3.359375-16.859376-9.21875-22.824219-3.328125-3.386719-7.824219-7.242188-13.027344-11.707031-15.707031-13.480469-39.445313-33.851563-40.855469-52.515626-.484375-6.390624 1.703125-12.308593 6.6875-18.09375 2.539063-2.953124 5.457032-4.398437 9.175782-4.550781 10.914062-.464843 25.128906 10.082031 31.953124 16.152344v6.058594c.015626 1.539062-.78125 2.570312-1.257812 3.050781zm0 0"/></g><path d="m304.328125 297.449219h-105.898437v-63.042969c0-6.304688 5.109374-11.417969 11.417968-11.417969h83.0625c6.304688 0 11.417969 5.113281 11.417969 11.417969zm0 0" fill="#ffa63b"/><path d="m292.910156 222.988281h-41.53125v74.460938h52.949219v-63.042969c0-6.304688-5.113281-11.417969-11.417969-11.417969zm0 0" fill="#ff8533"/><path d="m168.429688 512h-156.863282c-6.113281 0-11.066406-4.957031-11.066406-11.066406v-159.855469c0-8.183594 6.632812-14.820313 14.816406-14.820313h138.09375c8.296875 0 15.019532 6.726563 15.019532 15.019532zm0 0" fill="#7fd19b"/><path d="m153.410156 326.257812h-38.144531v185.742188h53.164063v-170.722656c0-8.292969-6.726563-15.019532-15.019532-15.019532zm0 0" fill="#3cab8b"/><path d="m335.34375 512h-167.929688v-233.011719c0-8.183593 6.632813-14.816406 14.816407-14.816406h138.292969c8.183593 0 14.820312 6.632813 14.820312 14.816406zm0 0" fill="#fc477e"/><path d="m320.527344 264.171875h-38.132813v247.828125h52.949219v-233.011719c0-8.183593-6.636719-14.816406-14.816406-14.816406zm0 0" fill="#d82665"/><path d="m250.835938 356.472656-4.0625 5.109375c-.8125.8125-1.855469 1.160157-2.554688 1.160157-2.4375 0-4.179688-2.554688-4.179688-4.992188 0-1.742188.929688-3.714844 2.4375-4.757812l12.074219-11.609376c.8125-.8125 1.742188-1.277343 3.132813-1.277343 2.558594 0 5.457031 1.507812 5.457031 4.0625v76.851562c0 2.671875-3.132813 4.0625-6.152344 4.0625-3.132812 0-6.152343-1.390625-6.152343-4.0625zm0 0" fill="#f8fbff"/><path d="m80.539062 365.035156c13.46875 0 24.84375 9.171875 24.84375 23.105469 0 24.957031-37.613281 33.085937-37.613281 46.433594v4.414062h34.132813c2.089844 0 4.0625 2.4375 4.0625 5.339844s-1.972656 5.570313-4.0625 5.570313h-41.328125c-2.324219 0-5.457031-1.625-5.457031-4.0625v-11.261719c0-18.804688 37.960937-28.210938 37.960937-46.085938 0-5.691406-3.714844-12.191406-12.535156-12.191406-6.5 0-11.726563 3.597656-11.726563 11.492187 0 2.324219-2.4375 4.644532-6.5 4.644532-3.25 0-5.574218-1.625-5.574218-6.851563 0-12.417969 11.144531-20.546875 23.796874-20.546875zm0 0" fill="#f8fbff"/><path d="m434.429688 461.980469v-2.207031c0-9.285157-5.6875-12.652344-14.164063-12.652344-2.902344 0-3.945313-2.4375-3.945313-4.875 0-2.554688 1.042969-4.992188 3.945313-4.992188 7.082031 0 12.074219-2.207031 12.074219-12.769531 0-8.476563-4.0625-11.957031-11.609375-11.957031-9.402344 0-12.070313 4.757812-12.070313 9.519531 0 3.015625-1.394531 4.988281-5.808594 4.988281-5.453124 0-6.382812-1.273437-6.382812-5.6875 0-7.546875 5.226562-19.617187 24.378906-19.617187 13.582032 0 23.332032 5.339843 23.332032 20.664062 0 9.632813-3.714844 16.714844-9.285157 19.386719 6.847657 2.667969 11.839844 8.125 11.839844 17.992188v2.207031c0 18.457031-11.839844 25.308593-26.46875 25.308593-18.109375 0-25.65625-11.261718-25.65625-20.433593 0-4.0625 1.511719-5.222657 5.6875-5.222657 5.109375 0 6.386719 1.507813 6.386719 4.640626 0 5.109374 4.292968 10.101562 13.699218 10.101562 9.519532 0 14.046876-4.292969 14.046876-14.394531zm0 0" fill="#f8fbff"/></svg>