<svg id="Capa_1" enable-background="new 0 0 512 512" height="512" viewBox="0 0 512 512" width="512" xmlns="http://www.w3.org/2000/svg"><g><path d="m298.876 34.004c-9.79-1.863-19.8-3.091-29.754-3.647l1.676-29.953c11.27.631 22.604 2.02 33.688 4.13z" fill="#38336b"/><path d="m209.463 34.898-6.2-29.352c11.045-2.333 22.36-3.95 33.632-4.808l2.273 29.914c-9.956.758-19.95 2.187-29.705 4.246z" fill="#4d4389"/><g fill="#38336b"><path d="m506.857 309.113-29.354-6.199c2.056-9.732 3.481-19.707 4.238-29.646l29.914 2.277c-.856 11.253-2.47 22.547-4.798 33.568z"/><path d="m482.047 243.35c-.555-9.952-1.777-19.955-3.634-29.73l29.473-5.598c2.103 11.068 3.486 22.393 4.114 33.66z"/><path d="m470.873 184.582c-3.145-9.469-6.955-18.808-11.324-27.756l26.959-13.162c4.953 10.145 9.271 20.729 12.836 31.461z"/><path d="m444.663 130.887c-5.502-8.261-11.629-16.253-18.209-23.753l22.551-19.785c7.452 8.494 14.392 17.547 20.627 26.907z"/><path d="m405.242 85.925c-7.5-6.578-15.488-12.701-23.744-18.199l16.629-24.969c9.354 6.229 18.403 13.165 26.896 20.613z"/><path d="m355.413 52.771c-8.907-4.341-18.201-8.127-27.622-11.254l9.451-28.473c10.679 3.545 21.214 7.837 31.312 12.758z"/></g><path d="m448 256c0 39.25-11.78 75.76-32 106.16l-160 53.51-64 21.4c-54.56-19.28-97.79-62.51-117.07-117.07l37.97-192c35.15-39.28 86.24-64 143.1-64 39.25 0 75.76 11.78 106.16 32l83.18 128c1.75 10.41 2.66 21.1 2.66 32z" fill="#00b3ff"/><path d="m448 256c0 39.25-11.78 75.76-32 106.16l-160 53.51v-351.67c39.25 0 75.76 11.78 106.16 32l83.18 128c1.75 10.41 2.66 21.1 2.66 32z" fill="#3a80e8"/><path d="m256 224c0 17.67-14.33 32-32 32h-64c-17.06-.082-31.847 14.017-32 32 0 17.67-14.33 32-32 32h-21.07c-7.08-20.01-10.93-41.56-10.93-64 0-49.18 18.49-94.04 48.9-128h47.1c17.06-.082 31.847 14.017 32 32-.082 17.06 14.017 31.847 32 32 17.06-.082 31.847 14.017 32 32z" fill="#bde760"/><path d="m416 320v42.16c-34.39 51.74-93.21 85.84-160 85.84-22.44 0-43.99-3.85-64-10.93v-21.07c0-17.67 14.33-32 32-32 17.06.08 31.85-14.02 32-32v-.14c0-17 14.07-31.71 32-31.86z" fill="#bde760"/><path d="m416 320v42.16c-34.39 51.74-93.21 85.84-160 85.84v-96.14c0-17 14.07-31.71 32-31.86z" fill="#00d880"/><path d="m445.34 224h-62.42c-17.474 0-31.64-14.166-31.64-31.64.466-16.948-13.416-32.081-31.304-32.358-17.663-.184-31.976-14.337-31.976-32.002 0-17.673 14.327-32 32-32h42.16c43.3 28.78 74.24 74.66 83.18 128z" fill="#00d880"/><path d="m192 96c0 26.86-11.03 51.14-28.81 68.56h-134.38c-17.78-17.42-28.81-41.7-28.81-68.56 0-53.02 42.98-96 96-96s96 42.98 96 96z" fill="#f0f7ff"/><path d="m192 96c0 26.86-11.03 51.14-28.81 68.56h-67.19v-164.56c53.02 0 96 42.98 96 96z" fill="#d7e9fc"/><path d="m163.19 164.56c-17.31 16.98-41.03 27.44-67.19 27.44s-49.88-10.46-67.19-27.44c14.25-22 39.02-36.56 67.19-36.56s52.94 14.56 67.19 36.56z" fill="#ff6398"/><path d="m163.19 164.56c-17.31 16.98-41.03 27.44-67.19 27.44v-64c28.17 0 52.94 14.56 67.19 36.56z" fill="#ff2d75"/><circle cx="96" cy="96" fill="#ffe0e0" r="36.46"/><path d="m132.46 96c0 20.14-16.32 36.46-36.46 36.46v-72.92c20.14 0 36.46 16.32 36.46 36.46z" fill="#ffcccb"/><path d="m512 416c0 26.86-11.03 51.14-28.81 68.56h-134.38c-17.78-17.42-28.81-41.7-28.81-68.56 0-53.02 42.98-96 96-96s96 42.98 96 96z" fill="#f0f7ff"/><path d="m512 416c0 26.86-11.03 51.14-28.81 68.56h-67.19v-164.56c53.02 0 96 42.98 96 96z" fill="#d7e9fc"/><path d="m483.19 484.56c-17.31 16.98-41.03 27.44-67.19 27.44s-49.88-10.46-67.19-27.44c14.25-22 39.02-36.56 67.19-36.56s52.94 14.56 67.19 36.56z" fill="#ff6398"/><path d="m483.19 484.56c-17.31 16.98-41.03 27.44-67.19 27.44v-64c28.17 0 52.94 14.56 67.19 36.56z" fill="#ff2d75"/><circle cx="416" cy="416" fill="#ffe0e0" r="36.46"/><path d="m452.46 416c0 20.14-16.32 36.46-36.46 36.46v-72.92c20.14 0 36.46 16.32 36.46 36.46z" fill="#ffcccb"/><path d="m241.202 511.597c-11.27-.631-22.604-2.02-33.688-4.13l5.609-29.471c9.79 1.863 19.801 3.091 29.754 3.647z" fill="#4d4389"/><path d="m275.105 511.261-2.273-29.914c9.956-.757 19.95-2.186 29.705-4.245l6.199 29.352c-11.045 2.332-22.359 3.949-33.631 4.807z" fill="#38336b"/><path d="m30.258 238.732-29.913-2.277c.856-11.247 2.47-22.541 4.798-33.567l29.353 6.197c-2.056 9.737-3.482 19.713-4.238 29.647z" fill="#4d4389"/><path d="m4.113 303.979c-2.102-11.07-3.486-22.395-4.113-33.661l29.953-1.668c.555 9.951 1.777 19.954 3.634 29.73z" fill="#4d4389"/><path d="m25.493 368.336c-4.954-10.146-9.272-20.73-12.836-31.462l28.471-9.455c3.144 9.468 6.954 18.806 11.323 27.755z" fill="#4d4389"/><path d="m62.994 424.65c-7.45-8.493-14.389-17.545-20.625-26.905l24.967-16.633c5.504 8.262 11.631 16.254 18.211 23.755z" fill="#4d4389"/><path d="m113.872 469.243c-9.358-6.233-18.407-13.169-26.895-20.613l19.781-22.555c7.496 6.575 15.485 12.698 23.745 18.199z" fill="#4d4389"/><path d="m174.758 498.955c-10.677-3.544-21.212-7.836-31.312-12.758l13.142-26.969c8.909 4.341 18.202 8.128 27.621 11.254z" fill="#4d4389"/></g></svg>