<svg id="Capa_1" enable-background="new 0 0 512 512" height="512" viewBox="0 0 512 512" width="512" xmlns="http://www.w3.org/2000/svg" xmlns:xlink="http://www.w3.org/1999/xlink"><linearGradient id="SVGID_1_" gradientUnits="userSpaceOnUse" x1="249.65" x2="249.65" y1="512" y2="0"><stop offset="0" stop-color="#00b59c"/><stop offset="1" stop-color="#9cffac"/></linearGradient><linearGradient id="SVGID_2_" gradientUnits="userSpaceOnUse" x1="257.4" x2="257.4" y1="393.887" y2="9.099"><stop offset="0" stop-color="#c3ffe8"/><stop offset=".9973" stop-color="#f0fff4"/></linearGradient><g><g><g><path d="m452.8 184.3-48.3-135.3c-41.7-30.301-93.299-49-148.5-49-21.899 0-43.2 3.699-63.6 9.099l-98.1 95.101-91.5 121.8c-1.199 9.899-2.8 19.799-2.8 30 0 140.7 115.3 256 256 256 114 0 210.901-76.3 243.3-179.801z" fill="url(#SVGID_1_)"/></g></g><g><g><path d="m230.268 233.391c-2.646-4.583-7.51-7.432-12.802-7.499l-59.099-.743c-2.664-.033-5.271-.776-7.552-2.15l-40.299-24.279c-5.621-3.387-6.488-8.081-9.681-16.758-3.342-9.084 2.675-18.893 12.25-20.068l23.881-2.93c3.988-.489 7.613-2.558 10.062-5.742l11.229-14.597c1.914-2.488 4.56-4.313 7.566-5.218l45.036-13.556c5.577-1.679 9.678-6.434 10.519-12.196l3.939-26.979c.444-3.044-.058-6.15-1.438-8.899l-31.479-62.678c-100.499 25.801-177.301 111.601-189.6 216.901h38.658c2.961 0 5.857.877 8.32 2.519l81.396 54.264c3.105 2.07 5.327 5.223 6.232 8.843l22.725 90.898c1.259 5.036 5.033 9.064 9.977 10.647s10.355.498 14.306-2.87l18.185-15.502 11.369-30.747c1.185-3.206 3.43-5.91 6.362-7.667l38.907-23.302c7.027-4.208 9.379-13.276 5.283-20.369zm174.232-184.392-27.412 54.824c-.721 1.442-1.67 2.758-2.81 3.898l-24.255 24.255c-2.592 2.592-4.145 6.044-4.366 9.703l-1.284 21.272c-.297 4.915 1.838 9.662 5.71 12.702l22.457 17.63c2.259 1.773 3.961 4.158 4.905 6.871l12.064 34.683c1.992 5.728.339 12.092-4.189 16.127l-34.299 30.562c-3.194 2.846-5.021 6.921-5.021 11.199v19.734c0 2.329.542 4.625 1.584 6.708l19.109 38.219c4.577 9.154 16.793 11.129 24.023 3.898l39.24-39.24c3.747-3.747 9.192-5.239 14.326-3.925l55.018 14.08c7.5-23.999 12.7-49.799 12.7-76.199 0-85.201-43.001-160.8-107.5-207.001z" fill="url(#SVGID_2_)"/></g></g></g></svg>