<svg id="Capa_1" enable-background="new 0 0 512 512" height="512" viewBox="0 0 512 512" width="512" xmlns="http://www.w3.org/2000/svg" xmlns:xlink="http://www.w3.org/1999/xlink"><linearGradient id="SVGID_1_" gradientTransform="matrix(.707 .707 -.707 .707 235.289 -151.773)" gradientUnits="userSpaceOnUse" x1="302.984" x2="302.984" y1="452.134" y2="-52.101"><stop offset="0" stop-color="#5558ff"/><stop offset="1" stop-color="#00c0ff"/></linearGradient><linearGradient id="SVGID_2_" gradientTransform="matrix(.707 .707 -.707 .707 235.289 -151.773)" gradientUnits="userSpaceOnUse" x1="392.984" x2="392.984" y1="509.433" y2="-82.101"><stop offset="0" stop-color="#addcff"/><stop offset=".5028" stop-color="#eaf6ff"/><stop offset="1" stop-color="#eaf6ff"/></linearGradient><g><g><g><path d="m480.691 156.466c22.487-30.971 22.275-73.185.214-104.156l5.428-26.721-26.642 5.508c-30.972-22.061-73.186-22.273-104.157.212l40.729 83.155zm-52.184 11.456c-3.395-3.395-7.849-4.879-12.729-4.243-37.971 5.305-72.761-29.91-67.246-67.246.636-4.455-.848-9.334-4.243-12.729l-21.636-21.637c-25.244-25.244-59.186-39.244-95.672-39.668-36.063.423-70.003 14.425-95.247 39.668-5.94 5.94-5.94 15.273 0 21.213l42.427 42.426c5.939 5.939 15.273 5.94 21.213 0 13.577-13.577 34.365-16.547 51.123-8.697l-169.705 169.707 8.909 51.336 54.73 12.304 54.943-54.943c5.939-5.939 15.273-5.94 21.213 0 6.151 6.151 6.151 15.062 0 21.213l-54.943 54.943 7.212 49.638 56.851 14.425c.001-.423.001-.423-.211-.635l86.55-86.55 31.235 11.192-10.022-32.405 61.942-61.942c2.756 6.151 4.241 12.727 4.243 19.516-.212 12.09-4.879 23.546-13.152 31.82-5.94 5.94-5.94 15.273 0 21.213l42.426 42.427c5.939 5.939 15.273 5.94 21.213 0 52.608-52.608 52.608-138.311 0-190.919z" fill="url(#SVGID_1_)"/></g></g><g><g><path d="m480.904 52.309 26.641-26.721c5.939-5.939 5.939-15.274 0-21.213-5.728-5.728-15.274-5.939-21.213 0l-26.641 26.721c4.029 2.758 7.848 6.151 11.455 9.759 3.606 3.606 6.999 7.424 9.758 11.454zm-179.268 115.837c-5.863-5.863-15.351-5.863-21.213 0l-42.426 42.426c-5.863 5.863-5.863 15.351 0 21.213l42.426 42.426c5.863 5.863 15.351 5.863 21.213 0l42.426-42.426c5.863-5.863 5.863-15.351 0-21.213zm-275.968 127.267-21.213 21.213c-5.94 5.94-5.94 15.273 0 21.213l63.64 63.64c5.939 5.939 15.273 5.94 21.213 0l51.123-51.123-63.64-63.64c-16.545-8.062-37.335-5.091-51.123 8.697zm200.04 140.219-64.063-64.063-51.123 51.123c-5.94 5.94-5.94 15.273 0 21.213l63.64 63.64c5.939 5.939 15.273 5.94 21.213 0l21.213-21.213c13.787-13.788 17.182-34.154 9.12-50.7zm118.158-267.498c34.842 34.842 92.421 34.858 127.279 0 3.606-3.606 6.999-7.424 9.545-11.668l-125.156-125.157c-4.243 2.547-8.061 5.94-11.667 9.546-32.719 32.718-36.814 90.465-.001 127.279zm127.28 296.985-31.82-31.82c-11.668-11.668-30.547-11.879-42.426 0l-31.82 31.82c-5.728 5.728-15.274 5.939-21.213 0-5.728-5.728-5.728-15.485 0-21.213l21.213-21.213c17.607-17.607 17.606-46.034 0-63.64l-31.82-31.82-21.213 21.213 31.82 31.82c5.939 5.939 5.939 15.274 0 21.213l-21.213 21.213c-17.395 17.395-17.395 46.245 0 63.64 17.606 17.606 46.245 17.395 63.64 0l31.82-31.82 31.82 31.82c5.939 5.939 15.485 5.728 21.213 0 5.938-5.939 5.938-15.274-.001-21.213z" fill="url(#SVGID_2_)"/></g></g></g></svg>