<svg id="Capa_1" enable-background="new 0 0 512 512" height="512" viewBox="0 0 512 512" width="512" xmlns="http://www.w3.org/2000/svg" xmlns:xlink="http://www.w3.org/1999/xlink"><linearGradient id="SVGID_1_" gradientUnits="userSpaceOnUse" x1="233.5" x2="233.5" y1="450" y2="0"><stop offset="0" stop-color="#ffbef9"/><stop offset="1" stop-color="#fff1ff"/></linearGradient><linearGradient id="SVGID_2_" gradientUnits="userSpaceOnUse" x1="301" x2="301" y1="512" y2="62.699"><stop offset="0" stop-color="#a93aff"/><stop offset="1" stop-color="#ff81ff"/></linearGradient><g><g><g><path d="m436.732 166.641c-6.301-15.731-24.825-22.69-38.833-16.553-15.322 5.947-22.954 23.379-16.846 39.287 6.593 15.82 9.947 32.871 9.947 50.625s-3.354 34.805-10.107 51.035c-5.947 15.498 1.685 32.93 15.791 38.32 14.473 7.123 33.259.135 40.034-15.967 9.477-23.525 14.282-48.193 14.282-73.388s-4.805-49.863-14.268-73.359zm-19.332-103.942c-42.599-39-99.3-62.699-161.4-62.699-132.299 0-240 107.699-240 240 0 85.499 46.199 165 120.3 207.9 2.401 1.5 4.799 2.1 7.5 2.1h224.4c2.701 0 5.099-.601 7.5-2.1 15-8.699 29.101-18.9 41.7-30.601l-116.4-177.299z" fill="url(#SVGID_1_)"/></g></g><g><g><path d="m391 435h-270c-8.291 0-15 6.709-15 15v47c0 8.291 6.709 15 15 15h270c8.291 0 15-6.709 15-15v-47c0-8.291-6.709-15-15-15zm26.4-372.301-188.401 141.301c-10.799 8.1-17.999 21.3-17.999 36s7.2 27.9 17.999 36l188.401 141.299c49.2-45 78.6-109.2 78.6-177.299 0-70.201-30.3-133.5-78.6-177.301zm5.4 245.101c-3.443 8.175-13.119 11.293-19.501 8.099-7.798-2.999-11.398-11.699-8.399-19.499 7.5-18.001 11.1-36.901 11.1-56.4 0-19.501-3.6-38.401-11.1-56.4-2.999-7.8.601-16.5 8.399-19.501 7.5-3.3 16.501.601 19.501 8.101 8.699 21.599 13.2 44.399 13.2 67.8 0 23.399-4.501 46.199-13.2 67.8z" fill="url(#SVGID_2_)"/></g></g></g></svg>